<?xml version="1.0" encoding="utf-8"?>
<!-- Generator: Adobe Illustrator 16.0.0, SVG Export Plug-In . SVG Version: 6.00 Build 0)  -->
<!DOCTYPE svg PUBLIC "-//W3C//DTD SVG 1.1//EN" "http://www.w3.org/Graphics/SVG/1.1/DTD/svg11.dtd">
<svg version="1.1" id="Layer_1" xmlns="http://www.w3.org/2000/svg" xmlns:xlink="http://www.w3.org/1999/xlink" x="0px" y="0px"
	 width="24px" height="19.885px" viewBox="0 1.521 24 19.885" enable-background="new 0 1.521 24 19.885" xml:space="preserve">
<g>
	<rect fill="none" width="24" height="24"/>
</g>
<g>
	<g>
		<path fill="#EB6A34" d="M21,8c-1.45,0-2.26,1.44-1.93,2.51L15.52,14.07c-0.299-0.09-0.74-0.09-1.039,0l-2.551-2.55
			C12.27,10.45,11.46,9,10,9c-1.45,0-2.27,1.44-1.93,2.52l-4.56,4.55C2.44,15.74,1,16.55,1,18c0,1.1,0.9,2,2,2
			c1.45,0,2.26-1.439,1.93-2.51l4.55-4.561c0.3,0.09,0.74,0.09,1.04,0l2.55,2.551C12.73,16.55,13.54,18,15,18
			c1.45,0,2.27-1.439,1.93-2.52l3.561-3.55C21.561,12.26,23,11.45,23,10C23,8.9,22.1,8,21,8z"/>
		<polygon fill="#EB6A34" points="15,9 15.939,6.93 18,6 15.939,5.07 15,3 14.08,5.07 12,6 14.08,6.93 		"/>
		<polygon fill="#EB6A34" points="3.5,11 4,9 6,8.5 4,8 3.5,6 3,8 1,8.5 3,9 		"/>
	</g>
</g>
</svg>
