<?xml version="1.0" encoding="utf-8"?>
<!-- Generator: Adobe Illustrator 16.0.0, SVG Export Plug-In . SVG Version: 6.00 Build 0)  -->
<!DOCTYPE svg PUBLIC "-//W3C//DTD SVG 1.1//EN" "http://www.w3.org/Graphics/SVG/1.1/DTD/svg11.dtd">
<svg version="1.1" id="Layer_1" xmlns="http://www.w3.org/2000/svg" xmlns:xlink="http://www.w3.org/1999/xlink" x="0px" y="0px"
	 width="24px" height="24px" viewBox="0 0 24 24" enable-background="new 0 0 24 24" xml:space="preserve">
<path fill="none" d="M0,0h24v24H0V0z"/>
<path fill="#FFFFFF" d="M8.513,16.65h2.325v-9.3H8.513V16.65z M12,0.375C5.583,0.375,0.375,5.583,0.375,12
	c0,6.416,5.208,11.625,11.625,11.625c6.416,0,11.625-5.209,11.625-11.625C23.625,5.583,18.416,0.375,12,0.375z M12,21.3
	c-5.127,0-9.3-4.173-9.3-9.3S6.873,2.7,12,2.7s9.3,4.173,9.3,9.3S17.127,21.3,12,21.3z M13.162,16.65h2.325v-9.3h-2.325V16.65z"/>
</svg>
