<?xml version="1.0" encoding="utf-8"?>
<!-- Generator: Adobe Illustrator 16.0.0, SVG Export Plug-In . SVG Version: 6.00 Build 0)  -->
<!DOCTYPE svg PUBLIC "-//W3C//DTD SVG 1.1//EN" "http://www.w3.org/Graphics/SVG/1.1/DTD/svg11.dtd">
<svg version="1.1" id="Layer_1" xmlns="http://www.w3.org/2000/svg" xmlns:xlink="http://www.w3.org/1999/xlink" x="0px" y="0px"
	 width="302px" height="74.94px" viewBox="0 0 302 74.94" enable-background="new 0 0 302 74.94" xml:space="preserve">
<g>
	<path fill-rule="evenodd" clip-rule="evenodd" fill="#6D6E70" d="M146.902,58.556V0h-5.53v58.556H146.902L146.902,58.556z
		 M105.75,4.716l11.467,30.743H94.284L105.75,4.716L105.75,4.716z M85.5,58.556l6.914-18.381h26.675l6.75,18.381h5.692L109.084,0
		h-6.262L79.807,58.556H85.5L85.5,58.556z M48.333,58.556v-15.94l7.97-7.564l15.778,23.505h5.449l-17.649-26.92L75.66,16.428h-6.67
		L48.333,36.434V0h-4.879v58.556H48.333L48.333,58.556z M1,45.381c0.109,2.006,0.529,3.876,1.274,5.598
		c0.759,1.734,1.803,3.239,3.172,4.541c1.355,1.314,3.008,2.331,4.947,3.063c1.938,0.731,4.147,1.098,6.628,1.111
		c2.494,0,4.784-0.258,6.872-0.786c2.087-0.529,3.89-1.302,5.435-2.332c1.532-1.03,2.724-2.317,3.565-3.85
		c0.854-1.531,1.274-3.293,1.288-5.313c-0.014-2.007-0.408-3.701-1.167-5.057c-0.746-1.369-1.775-2.48-3.05-3.361
		c-1.287-0.881-2.724-1.6-4.323-2.154c-1.599-0.557-3.253-1.045-4.962-1.451c-1.708-0.394-3.361-0.8-4.961-1.22
		c-1.6-0.407-3.036-0.908-4.324-1.491c-1.274-0.583-2.305-1.328-3.05-2.25c-0.758-0.922-1.151-2.087-1.166-3.51
		c0-1.451,0.366-2.712,1.099-3.795c0.718-1.084,1.789-1.925,3.199-2.521c1.423-0.61,3.159-0.908,5.218-0.922
		c2.047-0.014,3.864,0.271,5.463,0.854c1.6,0.57,2.914,1.519,3.931,2.819c1.017,1.302,1.681,3.038,1.993,5.192h4.961
		c-0.42-3.159-1.328-5.72-2.738-7.671c-1.409-1.953-3.253-3.375-5.53-4.27c-2.291-0.881-4.947-1.328-7.997-1.315
		c-3.132,0.014-5.788,0.542-7.998,1.559c-2.195,1.031-3.876,2.44-5.042,4.243c-1.166,1.803-1.749,3.876-1.762,6.235
		c0.014,2.06,0.406,3.768,1.166,5.124c0.745,1.369,1.776,2.467,3.05,3.308c1.288,0.84,2.725,1.519,4.324,2.02
		c1.6,0.516,3.253,0.936,4.961,1.273c1.708,0.354,3.362,0.705,4.961,1.071c1.6,0.366,3.036,0.841,4.324,1.41
		c1.288,0.568,2.304,1.328,3.063,2.276c0.746,0.949,1.138,2.183,1.152,3.688c0,1.382-0.366,2.656-1.125,3.835
		c-0.76,1.18-1.897,2.13-3.442,2.848c-1.533,0.731-3.484,1.098-5.843,1.125c-2.427,0.014-4.486-0.312-6.181-0.963
		c-1.681-0.65-3.05-1.708-4.093-3.172c-1.044-1.449-1.831-3.388-2.333-5.787H1L1,45.381z"/>
	<path fill-rule="evenodd" clip-rule="evenodd" fill="#6D6E70" d="M277.281,14.433c12.273,0,22.227,9.953,22.227,22.225
		c0,3.187-0.672,6.216-1.879,8.954c-0.828-1.745-1.826-3.458-2.922-5.097c0.273-1.242,0.42-2.532,0.42-3.857
		c0-9.853-7.99-17.844-17.846-17.844c-2.102,0-4.119,0.364-5.992,1.033c-1.74-0.879-3.547-1.667-5.371-2.292
		C269.244,15.573,273.129,14.433,277.281,14.433L277.281,14.433z M292.074,53.244c-3.93,3.507-9.111,5.642-14.793,5.642
		c-12.273,0-22.227-9.953-22.227-22.228c0-4.768,1.504-9.186,4.063-12.806c1.445,0.102,2.9,0.489,4.012,0.868
		c0.229,0.077,0.455,0.157,0.68,0.24c-2.723,3.133-4.371,7.223-4.371,11.698c0,9.854,7.99,17.847,17.844,17.847
		c5.262,0,9.994-2.28,13.26-5.906C291.17,49.857,291.861,51.577,292.074,53.244L292.074,53.244z"/>
	<path fill-rule="evenodd" clip-rule="evenodd" fill="#6D6E70" d="M192.797,36.797c0,2.4-0.324,4.649-0.975,6.778
		c-0.652,2.114-1.586,3.985-2.82,5.612c-1.219,1.626-2.711,2.913-4.473,3.836c-1.748,0.935-3.74,1.409-5.963,1.422
		c-2.521-0.013-4.705-0.514-6.563-1.504c-1.855-0.977-3.373-2.345-4.566-4.08c-1.193-1.749-2.061-3.782-2.604-6.086
		c-0.541-2.304-0.771-4.785-0.664-7.441c0.027-2.644,0.408-4.989,1.125-7.035c0.719-2.047,1.736-3.781,3.023-5.192
		c1.287-1.396,2.805-2.467,4.541-3.199c1.748-0.719,3.646-1.084,5.707-1.084c2.305,0.014,4.336,0.474,6.098,1.382
		c1.775,0.896,3.254,2.169,4.461,3.795c1.205,1.627,2.127,3.524,2.738,5.694C192.486,31.878,192.797,34.235,192.797,36.797
		L192.797,36.797z M192.797,22.972h-0.162c-0.717-1.383-1.625-2.603-2.738-3.673c-1.098-1.057-2.305-1.951-3.633-2.67
		c-1.328-0.717-2.697-1.273-4.119-1.64c-1.41-0.366-2.793-0.556-4.148-0.556c-3.389,0.014-6.289,0.584-8.703,1.708
		c-2.412,1.112-4.377,2.684-5.908,4.691c-1.518,2.005-2.643,4.336-3.348,7.021c-0.719,2.67-1.072,5.571-1.072,8.702
		c0,2.372,0.244,4.649,0.719,6.845c0.488,2.196,1.221,4.229,2.195,6.101c0.977,1.856,2.211,3.496,3.715,4.893
		c1.49,1.396,3.254,2.48,5.273,3.253c2.02,0.786,4.324,1.18,6.885,1.193c1.994,0,3.945-0.312,5.855-0.908
		c1.898-0.597,3.646-1.491,5.232-2.656c1.6-1.18,2.914-2.616,3.957-4.325c0.068,1.952,0,3.863-0.176,5.762
		c-0.176,1.883-0.543,3.659-1.111,5.313c-0.568,1.668-1.41,3.145-2.521,4.419c-1.111,1.275-2.574,2.277-4.379,2.996
		c-1.801,0.732-4.037,1.098-6.695,1.11c-1.951,0.028-3.781-0.175-5.502-0.595c-1.736-0.421-3.227-1.18-4.473-2.305
		c-1.248-1.125-2.115-2.738-2.631-4.826h-5.205c0.068,1.017,0.326,2.088,0.787,3.199c0.475,1.111,1.152,2.196,2.059,3.24
		c0.91,1.057,2.063,2.02,3.445,2.859c1.395,0.854,3.049,1.531,4.945,2.047c1.912,0.501,4.107,0.759,6.574,0.772
		c3.199-0.014,5.924-0.393,8.215-1.125c2.277-0.746,4.162-1.789,5.666-3.117c1.504-1.342,2.684-2.901,3.537-4.677
		c0.867-1.789,1.479-3.728,1.83-5.829c0.354-2.101,0.529-4.282,0.516-6.561V15.571h-4.881V22.972L192.797,22.972z M212.967,33.707
		c0.244-2.006,0.719-3.903,1.41-5.693c0.705-1.776,1.625-3.361,2.793-4.744c1.178-1.369,2.588-2.454,4.242-3.239
		c1.652-0.787,3.551-1.193,5.705-1.207c2.197,0.014,4.135,0.407,5.789,1.166c1.666,0.773,3.063,1.83,4.174,3.199
		c1.127,1.356,1.967,2.929,2.535,4.731c0.557,1.789,0.84,3.727,0.84,5.787H212.967L212.967,33.707z M245.66,37.773
		c0.014-5.056-0.719-9.312-2.209-12.781c-1.477-3.457-3.605-6.086-6.371-7.876c-2.777-1.776-6.1-2.67-9.963-2.684
		c-3.008,0.014-5.719,0.61-8.105,1.762c-2.385,1.167-4.404,2.766-6.086,4.812c-1.668,2.047-2.955,4.419-3.836,7.116
		c-0.881,2.698-1.314,5.584-1.328,8.674c0,3.132,0.365,6.033,1.125,8.689c0.76,2.671,1.926,5.001,3.498,6.994
		c1.559,1.992,3.564,3.551,6.018,4.663c2.439,1.111,5.34,1.681,8.715,1.694c2.67-0.014,5.016-0.366,7.035-1.085
		c2.006-0.705,3.74-1.694,5.191-2.968c1.438-1.262,2.656-2.752,3.633-4.46c0.963-1.694,1.762-3.551,2.359-5.558h-5.449
		c-0.502,2.061-1.355,3.823-2.549,5.26c-1.207,1.437-2.67,2.534-4.42,3.279c-1.734,0.76-3.672,1.139-5.801,1.139
		c-2.344-0.013-4.391-0.46-6.166-1.327c-1.777-0.868-3.254-2.061-4.447-3.593c-1.193-1.531-2.086-3.294-2.67-5.3
		c-0.596-2.006-0.881-4.162-0.867-6.452H245.66L245.66,37.773z"/>
	<path fill-rule="evenodd" clip-rule="evenodd" fill="#F26636" d="M288.76,35.09c4.143,4.613,8.629,11.066,9.631,17.126
		c1.881,11.396-10.682,12.193-17.961,7.788l-0.381-0.23c3.746,0.78,6.469,1.596,10.592-0.542c3.117-1.614,3.973-5.561,1.074-11.303
		c-1.666-3.307-3.982-6.478-6.438-9.288l0.041-0.022l0.039-0.021l0.082-0.045l0.039-0.022l0.041-0.023l0.039-0.022l0.049-0.028
		l0.105-0.063l0.045-0.027l0.039-0.025l0.039-0.024l0.039-0.025l0.078-0.051l0,0l0.039-0.025l0.066-0.045l0.049-0.034l0.039-0.026
		l0.074-0.054l0.039-0.028l0.037-0.027l0.076-0.057l0.037-0.028l0,0l0.037-0.028l0.111-0.088l0.014-0.011l0.023-0.019l0.127-0.106
		l0.01-0.007l0.008-0.008l0,0c0.049-0.04,0.096-0.082,0.143-0.124l0.006-0.004l0.004-0.005l0.131-0.119l0.018-0.018l0.148-0.142
		l0.004-0.003l0.004-0.004c0.043-0.044,0.088-0.088,0.131-0.133l0.004-0.004l0.008-0.01l0.025-0.025l0.121-0.129l0.012-0.013
		l0.129-0.146l0.105-0.123l0.021-0.025l0.012-0.014l0.008-0.012l0.102-0.125l0.02-0.025l0.004-0.004
		c0.039-0.049,0.076-0.099,0.113-0.148l0.014-0.018l0.006-0.008l0.004-0.006l0.09-0.124l0.018-0.025l0.006-0.007l0.014-0.02
		l0.09-0.131l0.014-0.021l0.004-0.005l0.018-0.026l0.086-0.133l0.006-0.01l0.012-0.017l0.016-0.026l0.066-0.107l0.027-0.047
		l0.053-0.089l0.016-0.026l0.016-0.027l0.029-0.054l0.031-0.056l0.014-0.027l0.016-0.027l0.029-0.056l0.014-0.027l0.016-0.028
		l0.014-0.027L288.76,35.09L288.76,35.09z"/>
	<path fill-rule="evenodd" clip-rule="evenodd" fill="#F26636" d="M273.656,28.532c-3.125-2.042-6.586-3.896-10.092-5.089
		c-5.551-1.89-9.15-0.875-10.664,1.82c-2.361,4.216,0.533,9.093,1.688,12.733c-3.396-4.059-6.221-8.886-5.037-14.458
		c0.76-3.567,3.436-6.243,8.844-6.111c6.139,0.15,13.152,3.701,18.295,7.164c-0.543,0.379-1.051,0.831-1.506,1.354
		C274.5,26.731,273.992,27.609,273.656,28.532L273.656,28.532z"/>
	<path fill-rule="evenodd" clip-rule="evenodd" fill="#F26636" d="M276.746,27.304c2.238-2.573,6.139-2.845,8.713-0.607
		c2.572,2.238,2.844,6.139,0.605,8.713c-2.238,2.573-6.139,2.846-8.713,0.606C274.779,33.778,274.508,29.877,276.746,27.304
		L276.746,27.304z"/>
</g>
</svg>
