<?xml version="1.0" encoding="utf-8"?>
<!-- Generator: Adobe Illustrator 16.0.0, SVG Export Plug-In . SVG Version: 6.00 Build 0)  -->
<!DOCTYPE svg PUBLIC "-//W3C//DTD SVG 1.1//EN" "http://www.w3.org/Graphics/SVG/1.1/DTD/svg11.dtd">
<svg version="1.1" id="Layer_1" xmlns="http://www.w3.org/2000/svg" xmlns:xlink="http://www.w3.org/1999/xlink" x="0px" y="0px"
	 width="22px" height="18px" viewBox="0 0 22 18" enable-background="new 0 0 22 18" xml:space="preserve">
<path fill="none" d="M0,0h24v24H0V0z M0,0h24v24H0V0z"/>
<path fill="#FFFFFF" d="M11,13l4-4h-3V0h-2v9H7L11,13z M20,0h-6v1.99h6V16.02H2V1.99h6V0H2C0.9,0,0,0.9,0,2v14c0,1.1,0.9,2,2,2h18
	c1.1,0,2-0.9,2-2V2C22,0.9,21.1,0,20,0z M11,13l4-4h-3V0h-2v9H7L11,13z M20,0h-6v1.99h6V16.02H2V1.99h6V0H2C0.9,0,0,0.9,0,2v14
	c0,1.1,0.9,2,2,2h18c1.1,0,2-0.9,2-2V2C22,0.9,21.1,0,20,0z"/>
</svg>
