<?xml version="1.0" encoding="utf-8"?>
<!-- Generator: Adobe Illustrator 16.0.0, SVG Export Plug-In . SVG Version: 6.00 Build 0)  -->
<!DOCTYPE svg PUBLIC "-//W3C//DTD SVG 1.1//EN" "http://www.w3.org/Graphics/SVG/1.1/DTD/svg11.dtd">
<svg version="1.1" id="Layer_1" xmlns="http://www.w3.org/2000/svg" xmlns:xlink="http://www.w3.org/1999/xlink" x="0px" y="0px"
	 width="40.75px" height="39px" viewBox="0 0 40.75 39" enable-background="new 0 0 40.75 39" xml:space="preserve">
<path fill="#EB6933" d="M24.667,25.382l3.864,1.036l3.66-13.662L18.532,9.098l-1.037,3.865l7.063,1.892L7.809,24.523l2,3.464
	l16.75-9.668L24.667,25.382z M34.375,1.5h-28c-2.21,0-4,1.79-4,4v8h4v-8h28v28h-28v-8h-4v8c0,2.211,1.79,4,4,4h28
	c2.209,0,4-1.789,4-4v-28C38.375,3.291,36.584,1.5,34.375,1.5z M2.375,5.5v9h4v-9 M2.375,6.5v9h4v-9 M2.375,7.5v9h4v-9 M2.375,8.5v9
	h4v-9 M2.375,9.5v9h4v-9 M2.375,10.5v9h4v-9 M2.375,11.5v9h4v-9 M2.375,12.5v9h4v-9 M2.375,13.5v9h4v-9 M2.375,14.5v9h4v-9
	 M2.375,15.5v9h4v-9 M2.375,16.5v9h4v-9 M2.375,17.5v9h4v-9"/>
</svg>
