<?xml version="1.0" encoding="utf-8"?>
<!-- Generator: Adobe Illustrator 16.0.0, SVG Export Plug-In . SVG Version: 6.00 Build 0)  -->
<!DOCTYPE svg PUBLIC "-//W3C//DTD SVG 1.1//EN" "http://www.w3.org/Graphics/SVG/1.1/DTD/svg11.dtd">
<svg version="1.1" id="Capa_1" xmlns="http://www.w3.org/2000/svg" xmlns:xlink="http://www.w3.org/1999/xlink" x="0px" y="0px"
	 width="500px" height="500px" viewBox="0 0 500 500" enable-background="new 0 0 500 500" xml:space="preserve">
<g>
	<path fill="#FFFFFF" d="M332.468,240.225l-103.823-75.472c-3.81-2.762-8.868-3.178-13.044-1.032
		c-4.209,2.13-6.838,6.456-6.838,11.131v150.894c0,4.726,2.629,9.035,6.838,11.164c1.78,0.898,3.727,1.348,5.69,1.348
		c2.562,0,5.158-0.814,7.354-2.429l103.823-75.405c3.278-2.412,5.191-6.14,5.191-10.1
		C337.676,246.298,335.713,242.587,332.468,240.225z"/>
	<path fill="#FFFFFF" d="M250.008,0.033C111.91,0.033,0,111.943,0,250.042C0,388.09,111.91,499.967,250.008,499.967
		C388.073,499.967,500,388.074,500,250.042C500.017,111.943,388.073,0.033,250.008,0.033z M250.008,458.254
		c-115.004,0-208.246-93.191-208.246-208.212c0-114.971,93.242-208.279,208.246-208.279c114.988,0,208.212,93.292,208.212,208.279
		C458.237,365.063,364.996,458.254,250.008,458.254z"/>
</g>
</svg>
