<?xml version="1.0" encoding="utf-8"?>
<!-- Generator: Adobe Illustrator 16.0.0, SVG Export Plug-In . SVG Version: 6.00 Build 0)  -->
<!DOCTYPE svg PUBLIC "-//W3C//DTD SVG 1.1//EN" "http://www.w3.org/Graphics/SVG/1.1/DTD/svg11.dtd">
<svg version="1.1" id="Layer_1" focusable="false" xmlns="http://www.w3.org/2000/svg" xmlns:xlink="http://www.w3.org/1999/xlink"
	 x="0px" y="0px" width="500px" height="500px" viewBox="0 0 500 500" enable-background="new 0 0 500 500" xml:space="preserve">
<path fill="#FF5E45" d="M488.604,0h-46.299c-6.472-0.007-11.725,5.233-11.732,11.706c0,0.19,0.005,0.38,0.014,0.57l3.906,80.82
	C388.523,38.927,321.045,7.734,250,7.813C116.543,7.813,7.715,116.729,7.813,250.186C7.91,383.857,116.309,492.188,250,492.188
	c59.971,0.085,117.825-22.165,162.285-62.412c4.823-4.316,5.233-11.725,0.917-16.548c-0.145-0.162-0.294-0.319-0.448-0.474
	l-33.203-33.203c-4.36-4.359-11.354-4.594-15.996-0.537c-71.268,62.702-179.871,55.758-242.573-15.51s-55.758-179.871,15.51-242.572
	c71.268-62.702,179.871-55.758,242.573,15.509c4.914,5.586,9.461,11.485,13.611,17.661l-99.15-4.756
	c-6.465-0.308-11.955,4.684-12.262,11.149c-0.01,0.19-0.014,0.38-0.014,0.57v46.299c0,6.472,5.246,11.719,11.719,11.719h195.635
	c6.472,0,11.719-5.247,11.719-11.719V11.719C500.322,5.247,495.075,0,488.604,0L488.604,0z"/>
</svg>
