<svg xmlns="http://www.w3.org/2000/svg" width="17" height="21" viewBox="0 0 17 21">
    <defs>
        <linearGradient id="a" x1="50%" x2="-57.401%" y1="150.358%" y2="-128.586%">
            <stop offset="0%" stop-color="#FF7136" stop-opacity="0"/>
            <stop offset="100%" stop-color="#FF7136"/>
        </linearGradient>
    </defs>
    <g fill="none" fill-rule="evenodd">
        <path stroke="#FF7136" stroke-linecap="round" stroke-linejoin="round" d="M8.309 4.107v1.248M8.309 13.711v4.305M11.384 18.016a1.537 1.537 0 1 1-3.075 0"/>
        <path fill="url(#a)" d="M4.524 11.807c.85 0 1.57.547 1.833 1.306h.215a1.94 1.94 0 0 1 1.832-1.306 1.94 1.94 0 0 1 1.832 1.306h.141a1.938 1.938 0 0 1 3.663 0h.216a1.938 1.938 0 0 1 3.663 0h.152c0-3.789-3.467-6.861-7.743-6.861s-7.743 3.072-7.743 6.861h.108a1.94 1.94 0 0 1 1.831-1.306z" transform="translate(-2 -.897)"/>
        <path stroke="#FF7136" stroke-linecap="round" stroke-linejoin="round" d="M2.524 10.91c.85 0 1.57.547 1.833 1.307h.215a1.94 1.94 0 0 1 1.832-1.306 1.94 1.94 0 0 1 1.832 1.306h.141a1.938 1.938 0 0 1 3.663 0h.216a1.938 1.938 0 0 1 3.663 0h.152c0-3.79-3.467-6.862-7.743-6.862S.585 8.427.585 12.217h.108a1.94 1.94 0 0 1 1.831-1.306zM3.195.046l.857 2.13M8.99 1.111l.856 2.129M13.544 1.514l.857 2.129M3.195 4.087l.857 2.129M6.687 3.043l.857 2.128M12.5 4.625l.857 2.129"/>
        <path fill-rule="nonzero" d="M-2-.23h20v20H-2z"/>
    </g>
</svg>
