<svg xmlns="http://www.w3.org/2000/svg" width="170" height="22" viewBox="0 0 170 22">
    <path fill="#000" fill-rule="nonzero" d="M12.457 4.944l-2.768.849c-.156-.87-.87-2.233-2.88-2.233-1.496 0-2.478.96-2.478 2.01 0 .87.558 1.562 1.72 1.786l2.21.424c2.88.558 4.42 2.433 4.42 4.666 0 2.433-2.032 4.889-5.716 4.889-4.197 0-6.05-2.701-6.295-4.956l2.857-.76c.134 1.563 1.228 2.97 3.46 2.97 1.653 0 2.568-.826 2.568-1.942 0-.916-.692-1.63-1.92-1.876l-2.21-.446C2.902 9.81 1.273 8.182 1.273 5.793 1.273 2.98 3.795.837 6.787.837c3.84 0 5.313 2.321 5.67 4.107zm13.15 1.072l-4.398 4.621L25.696 17h-3.639l-2.902-4.197-1.228 1.295V17h-2.97V.837h2.97v9.265l3.795-4.086h3.885zm5.626 15.315h-3.148l2.59-5.715-4.666-9.6h3.326l2.925 6.43 2.701-6.43h3.17l-6.898 15.315zM40.43 17V5.614h1.094v2.032c.736-1.183 1.763-2.3 3.795-2.3 1.987 0 3.215 1.139 3.84 2.456.736-1.272 1.964-2.456 4.108-2.456 2.7 0 4.375 1.898 4.375 4.756V17H56.55v-6.764c0-2.456-1.272-3.885-3.37-3.885-1.92 0-3.595 1.473-3.595 4.018V17H48.49v-6.831c0-2.367-1.295-3.818-3.326-3.818-2.032 0-3.64 1.786-3.64 4.085V17h-1.093zm26.03.268c-2.991 0-5.58-2.389-5.58-5.939v-.044c0-3.304 2.321-5.939 5.402-5.939 3.192 0 5.224 2.59 5.224 5.961 0 .201 0 .268-.022.447H62.04c.201 2.835 2.233 4.487 4.465 4.487 1.764 0 2.97-.781 3.907-1.786l.76.67c-1.162 1.25-2.524 2.143-4.711 2.143zm-4.42-6.497h8.283c-.156-2.3-1.474-4.42-4.086-4.42-2.254 0-3.996 1.898-4.197 4.42zm16.454 6.43c-1.764 0-3.193-.96-3.193-3.126V6.62H73.65V5.614h1.652V1.975h1.094v3.64h3.996v1.004h-3.996v7.345c0 1.63.96 2.21 2.277 2.21.559 0 1.027-.112 1.675-.402V16.8a4.18 4.18 0 0 1-1.853.402zm8.327-.112L82.647 5.614h1.228l3.438 10.002L90.751 5.57h.87l3.439 10.046 3.438-10.002h1.183L95.506 17.09h-.937l-3.394-9.756-3.415 9.756h-.938zm20.271.179c-2.991 0-5.581-2.389-5.581-5.939v-.044c0-3.304 2.322-5.939 5.403-5.939 3.192 0 5.224 2.59 5.224 5.961 0 .201 0 .268-.023.447h-9.443c.2 2.835 2.232 4.487 4.465 4.487 1.763 0 2.969-.781 3.907-1.786l.759.67c-1.161 1.25-2.523 2.143-4.71 2.143zm-4.42-6.497h8.282c-.156-2.3-1.473-4.42-4.085-4.42-2.255 0-3.996 1.898-4.197 4.42zm16.118 6.497c-2.12 0-4.398-1.206-4.398-3.572v-.045c0-2.366 2.032-3.706 4.979-3.706 1.585 0 2.679.201 3.773.491v-.49c0-2.3-1.407-3.483-3.75-3.483-1.385 0-2.524.38-3.573.915l-.402-.96c1.25-.58 2.478-.982 4.041-.982 1.54 0 2.768.424 3.595 1.25.759.759 1.16 1.808 1.16 3.215V17h-1.071v-1.898c-.782 1.094-2.188 2.166-4.354 2.166zm.067-1.027c2.322 0 4.31-1.429 4.31-3.505V11.44c-.96-.246-2.233-.513-3.863-.513-2.411 0-3.75 1.071-3.75 2.656v.045c0 1.652 1.562 2.612 3.303 2.612zm12.971.96c-1.763 0-3.192-.96-3.192-3.126V6.62h-1.652V5.614h1.652V1.975h1.094v3.64h3.996v1.004h-3.996v7.345c0 1.63.96 2.21 2.277 2.21.558 0 1.027-.112 1.674-.402V16.8a4.18 4.18 0 0 1-1.853.402zm5.135-.201V.703h1.094v7.032c.759-1.34 2.032-2.389 4.108-2.389 2.88 0 4.554 1.965 4.554 4.689V17h-1.094v-6.764c0-2.345-1.317-3.885-3.617-3.885-2.232 0-3.951 1.697-3.951 4.063V17h-1.094zm18.485.268c-2.991 0-5.581-2.389-5.581-5.939v-.044c0-3.304 2.322-5.939 5.403-5.939 3.192 0 5.224 2.59 5.224 5.961 0 .201 0 .268-.023.447h-9.443c.2 2.835 2.232 4.487 4.465 4.487 1.763 0 2.969-.781 3.907-1.786l.759.67c-1.161 1.25-2.523 2.143-4.71 2.143zm-4.42-6.497h8.282c-.156-2.3-1.473-4.42-4.085-4.42-2.255 0-3.996 1.898-4.197 4.42zM163.687 17V5.614h1.094v3.237c.893-2.031 2.79-3.505 5.045-3.415V6.64h-.111c-2.635 0-4.934 1.987-4.934 5.693V17h-1.094z"/>
</svg>
